{"accessors":[{"bufferView":2,"componentType":5126,"count":1493,"max":[2.7054998874664307,2.288100004196167,2.2832999229431152],"min":[0.5009999871253967,1.0081000328063965,-2.166100025177002],"type":"VEC3"},{"bufferView":2,"byteOffset":17916,"componentType":5126,"count":1493,"max":[1,0.9999490976333618,1],"min":[-1,-0.9999525547027588,-0.9996671080589294],"type":"VEC3"},{"bufferView":3,"componentType":5126,"count":1493,"max":[1,0.999873161315918,0.9974815249443054,1],"min":[-1,-0.9998698234558105,-0.9866802096366882,1],"type":"VEC4"},{"bufferView":1,"componentType":5126,"count":1493,"max":[0.9919000267982483,0.9979000091552734],"min":[0.0027000000700354576,0.005100000184029341],"type":"VEC2"},{"bufferView":0,"componentType":5125,"count":6228,"max":[1492],"min":[0],"type":"SCALAR"}],"asset":{"extras":{"author":"Violaine (https://sketchfab.com/violaine)","license":"CC-BY-4.0 (http://creativecommons.org/licenses/by/4.0/)","source":"https://sketchfab.com/3d-models/mason-jar-on-plank-59eaa5db9ee74fea89e37df4366024e5","title":"Mason Jar On Plank"},"generator":"Sketchfab-8.95.0","version":"2.0"},"bufferViews":[{"buffer":0,"byteLength":24912,"byteOffset":0,"name":"floatBufferViews","target":34963},{"buffer":0,"byteLength":11944,"byteOffset":24912,"byteStride":8,"name":"floatBufferViews","target":34962},{"buffer":0,"byteLength":35832,"byteOffset":36856,"byteStride":12,"name":"floatBufferViews","target":34962},{"buffer":0,"byteLength":23888,"byteOffset":72688,"byteStride":16,"name":"floatBufferViews","target":34962}],"buffers":[{"byteLength":96576,"uri":"data:application/octet-stream;base64,"}],"images":[{"uri":"data:application/octet-stream;base64,"},{"uri":"data:application/octet-stream;base64,"},{"uri":"data:application/octet-stream;base64,"}],"materials":[{"doubleSided":true,"emissiveFactor":[0.9599063199345271,0.9599063199345271,0.9599063199345271],"emissiveTexture":{"index":1,"texCoord":0},"name":"Material__46","normalTexture":{"index":2,"scale":1,"texCoord":0},"pbrMetallicRoughness":{"baseColorFactor":[1,1,1,1],"baseColorTexture":{"index":0,"texCoord":0},"metallicFactor":0,"roughnessFactor":1}}],"meshes":[{"primitives":[{"attributes":{"NORMAL":1,"POSITION":0,"TANGENT":2,"TEXCOORD_0":3},"indices":4,"material":0,"mode":4}]}],"nodes":[{"children":[1],"name":"RootNode (gltf orientation matrix)","rotation":[-0.7071067811865475,0,0,0.7071067811865476]},{"children":[2],"name":"RootNode (model correction matrix)"},{"children":[3],"name":"5bcabc79387249f3bce5a4a18da65ac3.obj.cleaner"},{"mesh":0,"name":""}],"samplers":[{"magFilter":9729,"minFilter":9987,"wrapS":10497,"wrapT":10497}],"scene":0,"scenes":[{"name":"OSG_Scene","nodes":[0]}],"textures":[{"sampler":0,"source":0},{"sampler":0,"source":1},{"sampler":0,"source":2}]}